<svg width="45" height="53" viewBox="0 0 45 53" fill="none" xmlns="http://www.w3.org/2000/svg"><path d="M37.153 22.694c-.037 8.028-6.474 14.498-14.37 14.457-7.897-.041-14.268-6.598-14.227-14.606.042-8.008 6.483-14.502 14.37-14.46 7.89.04 14.268 6.58 14.227 14.609z" fill="url(#paint0_linear)"/><path d="M11.814 25.498c0-7.695 6.136-13.934 13.707-13.934a13.476 13.476 0 018.247 2.788 13.61 13.61 0 00-10.965-5.57c-7.587 0-13.723 6.238-13.723 13.94a13.975 13.975 0 005.48 11.134 14.02 14.02 0 01-2.746-8.358z" fill="url(#paint1_linear)"/><path d="M16.321 9.593c7.01-3.517 15.6-.54 19.208 6.643 3.608 7.183.866 15.863-6.132 19.38-6.998 3.518-15.723.525-19.335-6.663-3.612-7.187-.742-15.842 6.26-19.36z" stroke="#4C4757" stroke-width=".64" stroke-miterlimit="10" stroke-linecap="round"/><path d="M42.254 15.832c.375.5 1.447 4.388 1.365 7.216a21.03 21.03 0 01-11.22 18.004 21.878 21.878 0 01-9.526 2.288c-9.195.041-21.145-7.195-20.683-21.26.325-9.46 7.488-20.202 20.659-20.243 10.989-.037 17.553 9.233 17.88 10.309.25.825-1.065 1.526-1.687.647-3.3-4.663-8.66-9.208-16.239-9.261-9.377-.066-18.176 7.744-18.75 17.228-.267 4.428.582 7.509 1.98 10.391a19.12 19.12 0 0016.906 10.47c9.286-.041 17.166-6.342 18.66-16.193.968-6.384-2.553-11.752-5.147-14.569-3.146-3.393-8.59-6.358-13.471-6.33-10.808.05-17.299 8.355-17.946 16.008-.285 3.365.107 6.87 1.757 10.103 3.047 6.008 9.706 10.16 16.25 10.07 10.078-.145 15.583-7.324 17.34-13.645.86-3.31.616-6.808-.693-9.967-.499-1.237-2.157-.643-1.715.759 1.352 4.268 1.286 7.117-.186 11.002-1.15 3.034-5.196 9.99-14.787 10.086A16.407 16.407 0 016.717 22.079c.042-5.698 3.736-11.545 8.977-14.16a16.198 16.198 0 0113.963 0c2.201 1.064 5.022 3.36 7.22 6.342" stroke="#4C4757" stroke-width=".64" stroke-miterlimit="10" stroke-linecap="round"/><path d="M38.843 17.428s2.342 4.293 0 11.166a17.929 17.929 0 01-8.383 9.563c-8.086 4.062-18.556.548-22.762-7.835-4.206-8.383-.907-18.671 6.887-22.766 4.898-2.564 10.461-3.39 17.285.619 2.178 1.278 4.796 3.711 5.897 5.587.623 1.072-.92 1.967-1.695.957-.581-.755-5.303-7.558-13.092-7.55-9.595 0-15.319 7.834-15.405 15.442-.095 8.313 7.422 15.435 15.228 15.402 11.047-.046 15.36-9.86 15.282-14.845a19.834 19.834 0 00-1.077-5.835c-.255-.791-.33-1.208.619-1.65a19.81 19.81 0 002.09-1.05c1.65-.904 2.54-1.023 1.967-2.475C41.111 10.707 34.641 1 23.021 1 10.544 1 1.282 10.86 1.282 23.358c0 11.62 10.309 20.815 21.653 20.815 15.15 0 21.302-13.509 21.487-20.205.145-5.216-1.026-7.835-1.331-8.618-.528-1.32-2.157-.318-1.761.705.759 1.959 1.237 3.093 1.311 6.758.231 9.13-7.294 19.472-19.706 19.649-7.262.103-14.482-4.223-17.731-10.907C.119 21.073 4.58 9.474 13.958 4.785 21.248 1.14 28.963 2.542 35.4 7.292c1.613 1.196 3.196 3.3 4.181 4.71" stroke="#4C4757" stroke-width=".64" stroke-miterlimit="10" stroke-linecap="round"/><path d="M32.46 13.197c-.44 0-5.05.528-9.393.528-4.342 0-8.952-.528-9.389-.528-.78 1.938-.54 5.13 0 7.703.103.149.124.252.173.231.573-.788 3.031-3.616 6.717-4.45v17.27a1.546 1.546 0 01-.73 1.237v.227h6.38v-.24a1.427 1.427 0 01-.718-1.236V16.682c3.497.338 6.218 3.661 6.792 4.449.049 0 .07-.082.169-.23.544-2.574.783-5.766 0-7.704z" fill="#817E8C"/><path d="M32.197 12.847c-.442 0-5.052.528-9.394.528-4.342 0-8.952-.528-9.39-.528-.779 1.938-.54 5.13 0 7.703.104.148.125.251.174.226.573-.783 3.03-3.612 6.717-4.445v17.27a1.545 1.545 0 01-.73 1.257v.235h6.38v-.247a1.428 1.428 0 01-.718-1.237V16.33c3.497.338 6.218 3.662 6.787 4.445.054.025.074-.078.173-.226.545-2.573.784-5.765 0-7.703z" fill="#fff"/><path d="M6.948 46.31c-.127 0-1.484.152-2.758.152s-2.631-.153-2.759-.153a4.417 4.417 0 000 2.264c.03.041.037.07.05.066a3.658 3.658 0 011.975-1.307v5.08a.453.453 0 01-.215.371v.041h1.873v-.07a.413.413 0 01-.21-.367v-5.072c1.026.1 1.826 1.077 1.995 1.307 0 0 0-.024.05-.066a4.417 4.417 0 000-2.247zm7.362.156h2.79c.486-.012.957.164 1.316.49a1.612 1.612 0 01.511 1.238 1.71 1.71 0 01-.75 1.513 2.573 2.573 0 01-1.785.387c.288-.131 1.36-.696 1.236-1.736-.103-.94-.98-.935-1.236-.935h-.116v4.403c-.006.204.022.408.082.602.054.153.15.287.277.388h-2.326a.879.879 0 00.268-.388c.06-.195.09-.397.09-.602v-4.362a1.708 1.708 0 00-.086-.594 1.007 1.007 0 00-.272-.404zm9.751 0l.087 1.315a2.793 2.793 0 00-.685-.363 2.06 2.06 0 00-.734-.136 1.502 1.502 0 00-1.237.553 2.379 2.379 0 00-.437 1.559 3.187 3.187 0 00.499 1.925 1.72 1.72 0 001.48.676c.297-.011.59-.067.87-.164.302-.085.59-.21.858-.372l-.412 1.287a3.118 3.118 0 01-.677.16c-.326.06-.657.09-.99.087a3.139 3.139 0 01-2.473-.965 3.43 3.43 0 01-.87-2.4 3.324 3.324 0 01.903-2.4 3.093 3.093 0 012.334-.944c.235.002.47.017.705.046a8.3 8.3 0 01.779.136zm1.184 0h2.338a.936.936 0 00-.277.412 1.83 1.83 0 00-.078.594v3.126l2.128-4.124h1.765a.9.9 0 00-.277.412c-.062.192-.09.393-.082.594v4.367c-.008.204.02.408.082.602a.825.825 0 00.277.388h-2.343a.854.854 0 00.28-.425c.06-.195.09-.398.087-.602V48.7l-2.148 4.124h-1.76a.886.886 0 00.272-.387 1.74 1.74 0 00.086-.602v-4.371a1.914 1.914 0 00-.09-.594.952.952 0 00-.26-.404zm16.935 0h2.342a.91.91 0 00-.28.412c-.067.19-.094.393-.079.594v4.367a1.5 1.5 0 00.079.602c.053.154.15.289.28.387H42.18a.895.895 0 00.276-.387 1.75 1.75 0 00.082-.602v-1.947h-1.78v1.947c-.007.204.021.407.082.602.053.154.15.289.28.387h-2.342a.845.845 0 00.268-.387c.063-.194.094-.398.09-.602v-4.375a1.819 1.819 0 00-.082-.594.973.973 0 00-.276-.412h2.342a.911.911 0 00-.28.412 1.84 1.84 0 00-.083.594v1.513h1.782v-1.513a1.716 1.716 0 00-.083-.594.974.974 0 00-.276-.404zM7.323 49.703a3.567 3.567 0 01.879-2.404 3.356 3.356 0 014.73-.079c.59.65.902 1.506.87 2.384a3.455 3.455 0 01-.9 2.416 3.397 3.397 0 01-4.684.074 3.24 3.24 0 01-.895-2.391zm1.555-.268c-.03.692.14 1.379.487 1.98a1.48 1.48 0 001.298.758 1.382 1.382 0 001.13-.586 2.643 2.643 0 00.446-1.65 3.851 3.851 0 00-.5-2.06 1.401 1.401 0 00-2.428-.145 2.886 2.886 0 00-.433 1.703zm22.91.268a3.567 3.567 0 01.879-2.404 3.361 3.361 0 014.733-.079 3.38 3.38 0 01.862 2.384 3.46 3.46 0 01-.903 2.416 3.397 3.397 0 01-4.684.074 3.257 3.257 0 01-.887-2.391zm1.559-.268a3.66 3.66 0 00.482 1.98 1.48 1.48 0 001.3.758 1.372 1.372 0 001.13-.57 2.643 2.643 0 00.444-1.649 3.85 3.85 0 00-.486-2.061 1.399 1.399 0 00-2.425-.145 2.857 2.857 0 00-.445 1.687z" fill="#4C4757"/><defs><linearGradient id="paint0_linear" x1="36.806" y1="41.011" x2="1.715" y2="-5.247" gradientUnits="userSpaceOnUse"><stop stop-color="#2C3034"/><stop offset=".31" stop-color="#777480"/><stop offset=".54" stop-color="#A09BA7"/><stop offset=".73" stop-color="#777480"/><stop offset=".99" stop-color="#2C3034"/></linearGradient><linearGradient id="paint1_linear" x1="14.066" y1="11.309" x2="26.436" y2="29.865" gradientUnits="userSpaceOnUse"><stop stop-color="#BFBDC4"/><stop offset="1" stop-color="#96939D"/></linearGradient></defs></svg>