<svg xmlns="http://www.w3.org/2000/svg" xmlns:xlink="http://www.w3.org/1999/xlink"><symbol id="burger-icon" viewBox="0 0 20 13"><path stroke="#000" d="M0 .5h20M0 6.5h20M0 12.5h20"/></symbol><symbol id="holder" viewBox="0 0 22 13"/><symbol id="tel-icon" viewBox="0 0 17 17"><path d="M16.619 13.416l-2.626-2.626c-.522-.52-1.388-.505-1.93.036l-1.322 1.323-.261-.145c-.835-.463-1.979-1.098-3.182-2.301C6.092 8.496 5.457 7.35 4.993 6.515c-.05-.088-.096-.173-.143-.254l.888-.887.437-.437c.542-.542.556-1.408.035-1.93L3.584.38c-.521-.522-1.388-.506-1.93.036l-.74.744.02.02a4.279 4.279 0 00-.61 1.076c-.141.375-.23.732-.27 1.09-.347 2.875.966 5.501 4.53 9.066 4.927 4.926 8.897 4.554 9.069 4.535.373-.044.73-.133 1.094-.274.39-.153.755-.36 1.071-.607l.016.014.75-.734c.54-.542.556-1.408.035-1.931z" fill="#000"/></symbol></svg>