<svg width="45" height="53" viewBox="0 0 45 53" fill="none" xmlns="http://www.w3.org/2000/svg">
<path d="M37.1529 22.6938C37.1158 30.7223 30.679 37.1921 22.7825 37.1508C14.8859 37.1096 8.51512 30.5532 8.55635 22.5454C8.59759 14.5375 15.0385 8.04298 22.9268 8.08421C30.8151 8.12545 37.1941 14.6653 37.1529 22.6938Z" fill="url(#paint0_linear)"/>
<path d="M11.814 25.4978C11.814 17.8033 17.9498 11.5644 25.5206 11.5644C28.5023 11.5556 31.4027 12.536 33.7676 14.3519C32.5057 12.6278 30.8555 11.225 28.9507 10.2571C27.0458 9.28931 24.9398 8.78364 22.8032 8.78107C15.2159 8.78107 9.08013 15.0199 9.08013 22.7227C9.07444 24.8751 9.56606 26.9998 10.5166 28.931C11.4672 30.8622 12.8511 32.5478 14.5603 33.8561C12.7717 31.4369 11.8089 28.5064 11.814 25.4978Z" fill="url(#paint1_linear)"/>
<path d="M16.3214 9.59339C23.3313 6.07604 31.9206 9.05321 35.5287 16.2364C39.1368 23.4195 36.3946 32.0995 29.397 35.6169C22.3994 39.1342 13.6741 36.1406 10.0619 28.9533C6.44969 21.766 9.31965 13.1107 16.3214 9.59339Z" stroke="#4C4757" stroke-width="0.64" stroke-miterlimit="10" stroke-linecap="round"/>
<path d="M42.2538 15.8323C42.629 16.3312 43.7011 20.2197 43.6187 23.0484C43.5118 26.7744 42.4165 30.405 40.445 33.5684C38.4734 36.7319 35.6965 39.3145 32.3986 41.0517C29.4373 42.5247 26.1806 43.3072 22.8733 43.3402C13.6779 43.3815 1.72791 36.1447 2.18975 22.0794C2.5155 12.6201 9.67805 1.87832 22.8485 1.83709C33.8377 1.79997 40.4023 11.0696 40.7281 12.1459C40.9796 12.9706 39.6642 13.6716 39.0416 12.7933C35.7428 8.12957 30.3822 3.58546 22.8032 3.53185C13.4263 3.46587 4.62674 11.2758 4.05357 20.7599C3.78555 25.1885 4.63499 28.2688 6.03286 31.1511C7.61963 34.279 10.0361 36.9101 13.018 38.7566C15.9998 40.6032 19.4321 41.594 22.9393 41.6207C32.2254 41.5795 40.1054 35.2788 41.5982 25.4277C42.5672 19.0445 39.0457 13.6757 36.452 10.8593C33.3058 7.46568 27.8627 4.50088 22.9805 4.52974C12.1728 4.57922 5.68236 12.884 5.03497 20.5372C4.75045 23.902 5.14218 27.407 6.79159 30.6398C9.83886 36.6478 16.4983 40.8002 23.0424 40.7094C33.1202 40.5651 38.6251 33.3861 40.3817 27.0647C41.2411 23.7557 40.9979 20.2566 39.689 17.0982C39.19 15.8612 37.5324 16.4549 37.9736 17.8569C39.3261 22.1248 39.2601 24.9741 37.788 28.8585C36.6376 31.8934 32.5924 38.8497 23.0011 38.9446C20.8178 38.929 18.6596 38.4778 16.6529 37.6174C14.6463 36.757 12.8315 35.5048 11.3149 33.9341C9.79838 32.3634 8.61057 30.5058 7.82111 28.4702C7.03164 26.4346 6.6564 24.2619 6.71736 22.0794C6.7586 16.3807 10.4533 10.5336 15.6942 7.91927C17.8742 6.87801 20.2595 6.33758 22.6754 6.33758C25.0912 6.33758 27.4765 6.87801 29.6565 7.91927C31.8584 8.98313 34.6789 11.2799 36.8767 14.2612" stroke="#4C4757" stroke-width="0.64" stroke-miterlimit="10" stroke-linecap="round"/>
<path d="M38.8433 17.4281C38.8433 17.4281 41.1855 21.7206 38.8433 28.5945C37.3112 32.6992 34.3291 36.1009 30.4602 38.157C22.374 42.2186 11.9044 38.7054 7.69841 30.3223C3.49243 21.9392 6.79124 11.651 14.5847 7.55638C19.4834 4.99156 25.046 4.16686 31.8704 8.17491C34.0477 9.4532 36.6661 11.8861 37.7671 13.7623C38.3897 14.8344 36.8475 15.7292 36.0723 14.7189C35.4909 13.9643 30.7695 7.16053 22.9801 7.16877C13.3847 7.16877 7.6613 15.0034 7.57471 22.6113C7.47987 30.9243 14.997 38.0456 22.8028 38.0126C33.8497 37.9673 38.1629 28.1533 38.0846 23.168C38.0204 21.1801 37.6576 19.2132 37.0083 17.3332C36.7527 16.5415 36.6785 16.125 37.6269 15.6838C38.3438 15.3748 39.0419 15.0236 39.7175 14.6323C41.3669 13.7293 42.2576 13.6097 41.6844 12.1582C41.1112 10.7067 34.6414 1 23.0214 1C10.5436 1 1.28223 10.8593 1.28223 23.3577C1.28223 34.9777 11.591 44.1732 22.9348 44.1732C38.0846 44.1732 44.2369 30.6645 44.4224 23.968C44.5667 18.7517 43.3957 16.1333 43.0905 15.3498C42.5627 14.0303 40.9339 15.0323 41.3298 16.0549C42.0885 18.0136 42.5668 19.1476 42.6411 22.8134C42.872 31.9428 35.3466 42.2846 22.9348 42.4619C15.6733 42.565 8.45302 38.2394 5.20369 31.5552C0.119397 21.0733 4.58104 9.47382 13.9579 4.78538C21.2483 1.1402 28.9634 2.54219 35.4002 7.29248C37.0125 8.4883 38.5959 10.5913 39.5814 12.0015" stroke="#4C4757" stroke-width="0.64" stroke-miterlimit="10" stroke-linecap="round"/>
<g style="mix-blend-mode:multiply">
<path d="M32.4606 13.1974C32.0194 13.1974 27.4093 13.7252 23.0673 13.7252C18.7252 13.7252 14.1151 13.1974 13.678 13.1974C12.8987 15.1354 13.1378 18.327 13.678 20.9001C13.7811 21.0485 13.8017 21.1516 13.8512 21.131C14.4244 20.3434 16.882 17.5147 20.5684 16.6817V33.951C20.5559 34.2009 20.4829 34.4439 20.3558 34.6594C20.2287 34.8749 20.0512 35.0563 19.8385 35.188V35.4148H26.2176V35.1757C25.9997 35.0509 25.8187 34.8707 25.6927 34.6535C25.5667 34.4363 25.5003 34.1897 25.5001 33.9386V16.6817C28.9969 17.0199 31.7184 20.3434 32.2916 21.131C32.341 21.131 32.3617 21.0485 32.4606 20.9001C33.0049 18.327 33.2441 15.1354 32.4606 13.1974Z" fill="#817E8C"/>
</g>
<path d="M32.1965 12.8468C31.7552 12.8468 27.1452 13.3746 22.8031 13.3746C18.461 13.3746 13.851 12.8468 13.4139 12.8468C12.6345 14.7849 12.8737 17.9765 13.4139 20.5496C13.5169 20.698 13.5376 20.8011 13.587 20.7763C14.1602 19.9929 16.6178 17.1641 20.3042 16.3312V33.6005C20.295 33.8539 20.2237 34.1011 20.0964 34.3204C19.9691 34.5398 19.7898 34.7244 19.5744 34.8581V35.0932H25.9535V34.8458C25.7356 34.7209 25.5545 34.5408 25.4285 34.3236C25.3026 34.1064 25.2361 33.8598 25.236 33.6087V16.3312C28.7327 16.6693 31.4542 19.9929 32.0233 20.7763C32.0769 20.8011 32.0975 20.698 32.1965 20.5496C32.7408 17.9765 32.9799 14.7849 32.1965 12.8468Z" fill="white"/>
<path d="M6.94847 46.3091C6.82064 46.3091 5.464 46.4617 4.18984 46.4617C2.91567 46.4617 1.55904 46.3091 1.43121 46.3091C1.23452 47.0509 1.23452 47.8312 1.43121 48.573C1.46007 48.6142 1.46832 48.6431 1.48069 48.6389C1.97587 47.9962 2.67071 47.5364 3.45585 47.3318V52.4119C3.45347 52.4867 3.43265 52.5597 3.39524 52.6244C3.35783 52.6892 3.30499 52.7437 3.24143 52.7831V52.8243H5.11351V52.7542C5.04858 52.7177 4.99474 52.6643 4.95772 52.5997C4.92069 52.5351 4.90185 52.4617 4.90321 52.3872V47.3153C5.92996 47.4142 6.72992 48.3915 6.89899 48.6224C6.89899 48.6224 6.89899 48.5977 6.94847 48.5565C7.14226 47.8199 7.14226 47.0457 6.94847 46.3091Z" fill="#4C4757"/>
<path d="M14.3091 46.4658H17.1007C17.586 46.4539 18.0572 46.6297 18.4161 46.9565C18.585 47.1141 18.718 47.3061 18.8062 47.5195C18.8944 47.7329 18.9358 47.9628 18.9274 48.1936C18.9439 48.4892 18.8835 48.7841 18.7519 49.0493C18.6204 49.3146 18.4223 49.5412 18.1769 49.7069C17.6492 50.0502 17.014 50.1881 16.3915 50.0945C16.6801 49.9626 17.7522 49.3977 17.6285 48.3585C17.5254 47.4184 16.6471 47.4225 16.3915 47.4225H16.276V51.8264C16.2702 52.0303 16.2981 52.2337 16.3585 52.4284C16.4123 52.581 16.5081 52.7153 16.6347 52.8161H14.3091C14.4321 52.7137 14.5247 52.5796 14.5771 52.4284C14.637 52.2334 14.6675 52.0305 14.6678 51.8264V47.4637C14.6742 47.2622 14.6449 47.0612 14.5812 46.8699C14.525 46.715 14.4315 46.5762 14.3091 46.4658Z" fill="#4C4757"/>
<path d="M24.061 46.4658L24.1476 47.7812C23.9374 47.6291 23.707 47.5069 23.4631 47.4184C23.2287 47.3287 22.98 47.2826 22.7291 47.2823C22.494 47.271 22.2596 47.3151 22.0447 47.411C21.8298 47.507 21.6405 47.6522 21.492 47.8348C21.1686 48.2873 21.014 48.8388 21.055 49.3935C21.0116 50.0722 21.1864 50.747 21.5539 51.3192C21.7256 51.5454 21.9507 51.7256 22.209 51.8436C22.4673 51.9616 22.7508 52.0138 23.0342 51.9955C23.3308 51.9838 23.624 51.9282 23.9043 51.8305C24.2056 51.7461 24.4942 51.6213 24.762 51.4594L24.3496 52.7459C24.1309 52.8246 23.9041 52.8785 23.6734 52.9068C23.347 52.9668 23.0156 52.9958 22.6837 52.9934C22.2259 53.0232 21.7671 52.9522 21.3396 52.7855C20.9121 52.6188 20.5264 52.3604 20.2096 52.0285C19.6217 51.3702 19.3101 50.5107 19.3396 49.6286C19.3237 49.1887 19.3953 48.75 19.5503 48.338C19.7054 47.9261 19.9407 47.549 20.2426 47.2287C20.5437 46.9164 20.907 46.671 21.3091 46.5083C21.7112 46.3456 22.143 46.2693 22.5765 46.2844C22.8122 46.2859 23.0477 46.3011 23.2816 46.3298C23.5456 46.3627 23.8012 46.4081 24.061 46.4658Z" fill="#4C4757"/>
<path d="M25.2446 46.4659H27.5826C27.4551 46.5759 27.3596 46.7184 27.3063 46.8782C27.2478 47.0705 27.2213 47.2711 27.228 47.472V50.5976L29.3557 46.4741H31.1206C30.9916 46.5829 30.8959 46.7258 30.8443 46.8864C30.7822 47.078 30.7543 47.279 30.7618 47.4802V51.847C30.754 52.051 30.7819 52.2547 30.8443 52.4491C30.8963 52.6026 30.9924 52.7374 31.1206 52.8367H28.7784C28.9129 52.7269 29.0107 52.5787 29.0588 52.412C29.1188 52.217 29.148 52.0139 29.1454 51.8099V48.7008L26.9971 52.8243H25.2363C25.3605 52.7222 25.4546 52.5882 25.5085 52.4367C25.5725 52.2427 25.6018 52.0389 25.5951 51.8347V47.4637C25.5963 47.2623 25.5657 47.0619 25.5044 46.87C25.4537 46.7153 25.3643 46.5761 25.2446 46.4659Z" fill="#4C4757"/>
<path d="M42.1797 46.4658H44.5219C44.3919 46.5745 44.2948 46.7173 44.2415 46.8782C44.175 47.0686 44.1483 47.2708 44.1631 47.472V51.8388C44.148 52.0427 44.1746 52.2476 44.2415 52.4408C44.2946 52.5949 44.3922 52.7297 44.5219 52.8284H42.1797C42.3051 52.7265 42.4006 52.5926 42.456 52.4408C42.5184 52.2465 42.5463 52.0427 42.5385 51.8388V49.8925H40.7571V51.8388C40.7513 52.0426 40.7792 52.246 40.8396 52.4408C40.8927 52.5949 40.9903 52.7297 41.12 52.8284H38.7778C38.9021 52.7272 38.9951 52.5928 39.0459 52.4408C39.1095 52.2466 39.1401 52.0431 39.1366 51.8388V47.4637C39.1421 47.2626 39.1143 47.0619 39.0541 46.8699C38.9992 46.7109 38.904 46.5688 38.7778 46.4576H41.12C40.99 46.5663 40.8929 46.7091 40.8396 46.8699C40.7794 47.0619 40.7516 47.2626 40.7571 47.4637V48.977H42.5385V47.4637C42.5461 47.2625 42.5181 47.0615 42.456 46.8699C42.3998 46.7139 42.3047 46.5748 42.1797 46.4658Z" fill="#4C4757"/>
<path d="M7.32339 49.7028C7.30867 48.8204 7.6216 47.9639 8.20169 47.2988C8.82005 46.664 9.66434 46.2996 10.5504 46.2849C11.4364 46.2702 12.2923 46.6065 12.9314 47.2204C13.5217 47.8707 13.834 48.7262 13.8014 49.6038C13.8247 50.4951 13.5027 51.3609 12.9025 52.0202C12.2804 52.6314 11.4471 52.9799 10.5752 52.9937C9.70322 53.0075 8.85934 52.6856 8.21819 52.0944C7.91486 51.7772 7.67914 51.4016 7.52533 50.9904C7.37151 50.5793 7.30281 50.1413 7.32339 49.7028ZM8.87795 49.4348C8.84864 50.1274 9.01743 50.814 9.36452 51.4141C9.49348 51.645 9.68199 51.8373 9.91042 51.9707C10.1389 52.1041 10.3989 52.1739 10.6634 52.1728C10.8849 52.1729 11.1032 52.1198 11.2998 52.0179C11.4964 51.916 11.6657 51.7683 11.7933 51.5872C12.1202 51.1019 12.2768 50.5218 12.2386 49.9378C12.2686 49.2174 12.0957 48.5031 11.7397 47.8761C11.6299 47.6549 11.4636 47.4667 11.2577 47.3305C11.0518 47.1942 10.8136 47.1147 10.5671 47.1001C10.3207 47.0854 10.0747 47.1361 9.8541 47.247C9.63352 47.358 9.44614 47.5252 9.31092 47.7318C8.99312 48.2406 8.84178 48.8359 8.87795 49.4348Z" fill="#4C4757"/>
<path d="M31.7883 49.7028C31.7736 48.8204 32.0865 47.9639 32.6666 47.2988C33.2857 46.6638 34.1307 46.2992 35.0174 46.2845C35.9041 46.2699 36.7607 46.6063 37.4004 47.2204C37.9862 47.8729 38.2953 48.7276 38.2622 49.6038C38.284 50.4956 37.9605 51.3613 37.3592 52.0202C36.7371 52.6314 35.9038 52.9799 35.0319 52.9937C34.1599 53.0075 33.316 52.6856 32.6749 52.0944C32.3738 51.7759 32.1401 51.3999 31.9878 50.989C31.8354 50.5781 31.7676 50.1406 31.7883 49.7028ZM33.347 49.4348C33.3164 50.127 33.4838 50.8136 33.8294 51.4141C33.9584 51.6451 34.1469 51.8373 34.3753 51.9707C34.6038 52.1041 34.8638 52.1739 35.1284 52.1728C35.3485 52.1755 35.5661 52.1252 35.7627 52.0261C35.9593 51.9271 36.1293 51.7822 36.2582 51.6037C36.5851 51.1184 36.7418 50.5383 36.7035 49.9543C36.7373 49.2351 36.5687 48.5208 36.217 47.8926C36.1078 47.6714 35.9419 47.483 35.7364 47.3466C35.5308 47.2102 35.2928 47.1306 35.0466 47.116C34.8003 47.1013 34.5546 47.1521 34.3343 47.2632C34.114 47.3742 33.927 47.5416 33.7923 47.7483C33.4717 48.2503 33.316 48.8399 33.347 49.4348Z" fill="#4C4757"/>
<defs>
<linearGradient id="paint0_linear" x1="36.8065" y1="41.0105" x2="1.71545" y2="-5.24711" gradientUnits="userSpaceOnUse">
<stop stop-color="#2C3034"/>
<stop offset="0.31" stop-color="#777480"/>
<stop offset="0.54" stop-color="#A09BA7"/>
<stop offset="0.73" stop-color="#777480"/>
<stop offset="0.99" stop-color="#2C3034"/>
</linearGradient>
<linearGradient id="paint1_linear" x1="14.0655" y1="11.3088" x2="26.436" y2="29.8646" gradientUnits="userSpaceOnUse">
<stop stop-color="#BFBDC4"/>
<stop offset="1" stop-color="#96939D"/>
</linearGradient>
</defs>
</svg>
